<?xml version="1.0" standalone="no"?><!DOCTYPE svg PUBLIC "-//W3C//DTD SVG 1.1//EN" "http://www.w3.org/Graphics/SVG/1.1/DTD/svg11.dtd"><svg t="1711372491878" class="icon" viewBox="0 0 1024 1024" version="1.1" xmlns="http://www.w3.org/2000/svg" p-id="4894" width="200" height="200" xmlns:xlink="http://www.w3.org/1999/xlink"><path d="M295.232 208.768a19.2 19.2 0 0 1 27.2 0l18.048 18.112a19.2 19.2 0 0 1 0 27.2L82.56 512l257.984 257.92a19.2 19.2 0 0 1 2.816 23.68l-2.816 3.52-18.048 18.112a19.2 19.2 0 0 1-27.2 0L5.632 525.568a19.2 19.2 0 0 1 0-27.136l289.6-289.664z m433.536 0a19.2 19.2 0 0 0-27.2 0l-18.048 18.112a19.2 19.2 0 0 0 0 27.2L941.44 512l-257.984 257.92a19.2 19.2 0 0 0-2.816 23.68l2.816 3.52 18.048 18.112a19.2 19.2 0 0 0 27.2 0l289.6-289.664a19.2 19.2 0 0 0 0-27.136l-289.6-289.664z m-128 13.248l-114.752 590.528a19.2 19.2 0 0 1-22.528 15.232l-25.088-4.928a19.2 19.2 0 0 1-15.232-22.528l114.816-590.528a19.2 19.2 0 0 1 22.528-15.168l25.088 4.864a19.2 19.2 0 0 1 15.232 22.528z" fill="#ffffff" p-id="4895"></path></svg>